<svg xmlns="http://www.w3.org/2000/svg" xmlns:xlink="http://www.w3.org/1999/xlink" width="2000" zoomAndPan="magnify" viewBox="0 0 1500 1499.999933" height="2000" preserveAspectRatio="xMidYMid meet" version="1.0"><defs><g/><clipPath id="67e96824e0"><rect x="0" width="994" y="0" height="494"/></clipPath><clipPath id="cba3718b4c"><rect x="0" width="1120" y="0" height="493"/></clipPath></defs><rect x="-150" width="1800" fill="#ffffff" y="-149.999993" height="1799.99992" fill-opacity="1"/><rect x="-150" width="1800" fill="#0d1117" y="-149.999993" height="1799.99992" fill-opacity="1"/><g transform="matrix(1, 0, 0, 1, 143, 322)"><g clip-path="url(#67e96824e0)"><g fill="#ffffff" fill-opacity="1"><g transform="translate(0.171491, 389.521435)"><g><path d="M 217.75 -147.453125 L 288.453125 -147.453125 L 288.453125 -30.296875 C 272.296875 -18.710938 253.710938 -9.820312 232.703125 -3.625 C 211.691406 2.5625 190.6875 5.65625 169.6875 5.65625 C 140.050781 5.65625 113.382812 -0.601562 89.6875 -13.125 C 65.988281 -25.65625 47.40625 -43.097656 33.9375 -65.453125 C 20.46875 -87.804688 13.734375 -113.125 13.734375 -141.40625 C 13.734375 -169.675781 20.46875 -194.988281 33.9375 -217.34375 C 47.40625 -239.707031 66.125 -257.148438 90.09375 -269.671875 C 114.0625 -282.191406 141.128906 -288.453125 171.296875 -288.453125 C 197.691406 -288.453125 221.390625 -284.007812 242.390625 -275.125 C 263.398438 -266.238281 280.910156 -253.445312 294.921875 -236.75 L 244.015625 -190.6875 C 224.890625 -211.695312 202 -222.203125 175.34375 -222.203125 C 151.09375 -222.203125 131.5625 -214.859375 116.75 -200.171875 C 101.9375 -185.492188 94.53125 -165.90625 94.53125 -141.40625 C 94.53125 -125.78125 97.894531 -111.835938 104.625 -99.578125 C 111.363281 -87.328125 120.789062 -77.765625 132.90625 -70.890625 C 145.03125 -64.023438 158.90625 -60.59375 174.53125 -60.59375 C 189.882812 -60.59375 204.289062 -63.691406 217.75 -69.890625 Z M 217.75 -147.453125 "/></g></g></g><g fill="#ffffff" fill-opacity="1"><g transform="translate(311.244864, 389.521435)"><g><path d="M 97.765625 -192.703125 C 105.578125 -202.671875 115.742188 -210.144531 128.265625 -215.125 C 140.796875 -220.113281 155.140625 -222.609375 171.296875 -222.609375 L 171.296875 -153.515625 C 164.296875 -154.328125 158.503906 -154.734375 153.921875 -154.734375 C 137.492188 -154.734375 124.632812 -150.285156 115.34375 -141.390625 C 106.050781 -132.503906 101.40625 -118.90625 101.40625 -100.59375 L 101.40625 0 L 24.640625 0 L 24.640625 -218.96875 L 97.765625 -218.96875 Z M 97.765625 -192.703125 "/></g></g></g><g fill="#ffffff" fill-opacity="1"><g transform="translate(489.405035, 389.521435)"><g><path d="M 24.640625 -218.96875 L 101.40625 -218.96875 L 101.40625 0 L 24.640625 0 Z M 63.015625 -243.203125 C 49.015625 -243.203125 37.703125 -247.109375 29.078125 -254.921875 C 20.460938 -262.734375 16.15625 -272.429688 16.15625 -284.015625 C 16.15625 -295.597656 20.460938 -305.289062 29.078125 -313.09375 C 37.703125 -320.90625 49.015625 -324.8125 63.015625 -324.8125 C 77.023438 -324.8125 88.335938 -321.109375 96.953125 -313.703125 C 105.566406 -306.296875 109.875 -296.800781 109.875 -285.21875 C 109.875 -273.101562 105.566406 -263.070312 96.953125 -255.125 C 88.335938 -247.175781 77.023438 -243.203125 63.015625 -243.203125 Z M 63.015625 -243.203125 "/></g></g></g><g fill="#ffffff" fill-opacity="1"><g transform="translate(615.854343, 389.521435)"><g><path d="M 255.328125 -218.96875 L 164.828125 0 L 85.640625 0 L -4.4375 -218.96875 L 74.34375 -218.96875 L 126.859375 -85.25 L 182.203125 -218.96875 Z M 255.328125 -218.96875 "/></g></g></g><g fill="#ffffff" fill-opacity="1"><g transform="translate(866.329006, 389.521435)"><g><path d="M 24.640625 -218.96875 L 101.40625 -218.96875 L 101.40625 0 L 24.640625 0 Z M 63.015625 -243.203125 C 49.015625 -243.203125 37.703125 -247.109375 29.078125 -254.921875 C 20.460938 -262.734375 16.15625 -272.429688 16.15625 -284.015625 C 16.15625 -295.597656 20.460938 -305.289062 29.078125 -313.09375 C 37.703125 -320.90625 49.015625 -324.8125 63.015625 -324.8125 C 77.023438 -324.8125 88.335938 -321.109375 96.953125 -313.703125 C 105.566406 -306.296875 109.875 -296.800781 109.875 -285.21875 C 109.875 -273.101562 105.566406 -263.070312 96.953125 -255.125 C 88.335938 -247.175781 77.023438 -243.203125 63.015625 -243.203125 Z M 63.015625 -243.203125 "/></g></g></g></g></g><g transform="matrix(1, 0, 0, 1, 227, 684)"><g clip-path="url(#cba3718b4c)"><g fill="#2ad580" fill-opacity="1"><g transform="translate(0.473842, 390.279844)"><g><path d="M 28.25 -282.453125 L 108.140625 -282.453125 L 108.140625 -63.34375 L 242.90625 -63.34375 L 242.90625 0 L 28.25 0 Z M 28.25 -282.453125 "/></g></g></g><g fill="#2ad580" fill-opacity="1"><g transform="translate(249.833671, 390.279844)"><g><path d="M 117.828125 -222.328125 C 154.140625 -222.328125 181.84375 -214.054688 200.9375 -197.515625 C 220.039062 -180.972656 229.59375 -155.617188 229.59375 -121.453125 L 229.59375 0 L 158.171875 0 L 158.171875 -28.25 C 147.140625 -7 125.617188 3.625 93.609375 3.625 C 76.660156 3.625 62 0.664062 49.625 -5.25 C 37.25 -11.164062 27.898438 -19.164062 21.578125 -29.25 C 15.265625 -39.34375 12.109375 -50.84375 12.109375 -63.75 C 12.109375 -84.46875 20.039062 -100.539062 35.90625 -111.96875 C 51.78125 -123.40625 76.257812 -129.125 109.34375 -129.125 L 152.921875 -129.125 C 151.578125 -152.257812 136.113281 -163.828125 106.53125 -163.828125 C 96.03125 -163.828125 85.398438 -162.144531 74.640625 -158.78125 C 63.878906 -155.414062 54.734375 -150.773438 47.203125 -144.859375 L 21.390625 -196.90625 C 33.492188 -204.976562 48.21875 -211.234375 65.5625 -215.671875 C 82.914062 -220.109375 100.335938 -222.328125 117.828125 -222.328125 Z M 115 -44.78125 C 123.875 -44.78125 131.671875 -46.929688 138.390625 -51.234375 C 145.117188 -55.546875 149.960938 -61.867188 152.921875 -70.203125 L 152.921875 -89.171875 L 119.84375 -89.171875 C 97.507812 -89.171875 86.34375 -81.773438 86.34375 -66.984375 C 86.34375 -60.253906 88.898438 -54.867188 94.015625 -50.828125 C 99.128906 -46.796875 106.125 -44.78125 115 -44.78125 Z M 115 -44.78125 "/></g></g></g><g fill="#2ad580" fill-opacity="1"><g transform="translate(503.228421, 390.279844)"><g><path d="M 162.203125 -222.328125 C 182.109375 -222.328125 200.195312 -217.753906 216.46875 -208.609375 C 232.75 -199.460938 245.660156 -186.347656 255.203125 -169.265625 C 264.753906 -152.179688 269.53125 -132.34375 269.53125 -109.75 C 269.53125 -87.15625 264.753906 -67.25 255.203125 -50.03125 C 245.660156 -32.8125 232.75 -19.5625 216.46875 -10.28125 C 200.195312 -1.007812 182.109375 3.625 162.203125 3.625 C 133.421875 3.625 111.898438 -4.84375 97.640625 -21.78125 L 97.640625 0 L 24.609375 0 L 24.609375 -299.390625 L 101.28125 -299.390625 L 101.28125 -199.734375 C 116.070312 -214.796875 136.378906 -222.328125 162.203125 -222.328125 Z M 146.0625 -57.296875 C 159.507812 -57.296875 170.535156 -61.9375 179.140625 -71.21875 C 187.753906 -80.5 192.0625 -93.34375 192.0625 -109.75 C 192.0625 -125.894531 187.753906 -138.539062 179.140625 -147.6875 C 170.535156 -156.832031 159.507812 -161.40625 146.0625 -161.40625 C 132.613281 -161.40625 121.582031 -156.832031 112.96875 -147.6875 C 104.363281 -138.539062 100.0625 -125.894531 100.0625 -109.75 C 100.0625 -93.34375 104.363281 -80.5 112.96875 -71.21875 C 121.582031 -61.9375 132.613281 -57.296875 146.0625 -57.296875 Z M 146.0625 -57.296875 "/></g></g></g><g fill="#2ad580" fill-opacity="1"><g transform="translate(783.657374, 390.279844)"><g><path d="M 104.109375 3.625 C 85.816406 3.625 67.789062 1.539062 50.03125 -2.625 C 32.28125 -6.789062 18.023438 -12.238281 7.265625 -18.96875 L 30.265625 -71.421875 C 40.210938 -65.234375 52.046875 -60.320312 65.765625 -56.6875 C 79.484375 -53.0625 93.070312 -51.25 106.53125 -51.25 C 118.894531 -51.25 127.703125 -52.523438 132.953125 -55.078125 C 138.203125 -57.628906 140.828125 -61.328125 140.828125 -66.171875 C 140.828125 -71.015625 137.664062 -74.441406 131.34375 -76.453125 C 125.019531 -78.472656 115 -80.425781 101.28125 -82.3125 C 83.789062 -84.46875 68.925781 -87.289062 56.6875 -90.78125 C 44.445312 -94.28125 33.890625 -100.738281 25.015625 -110.15625 C 16.140625 -119.570312 11.703125 -132.753906 11.703125 -149.703125 C 11.703125 -163.691406 15.867188 -176.128906 24.203125 -187.015625 C 32.546875 -197.910156 44.71875 -206.519531 60.71875 -212.84375 C 76.726562 -219.164062 95.894531 -222.328125 118.21875 -222.328125 C 134.09375 -222.328125 149.832031 -220.710938 165.4375 -217.484375 C 181.039062 -214.253906 194.085938 -209.679688 204.578125 -203.765625 L 181.578125 -151.71875 C 162.203125 -162.476562 141.21875 -167.859375 118.625 -167.859375 C 106.519531 -167.859375 97.644531 -166.441406 92 -163.609375 C 86.351562 -160.785156 83.53125 -157.085938 83.53125 -152.515625 C 83.53125 -147.410156 86.617188 -143.847656 92.796875 -141.828125 C 98.984375 -139.804688 109.207031 -137.722656 123.46875 -135.578125 C 141.488281 -132.890625 156.414062 -129.796875 168.25 -126.296875 C 180.09375 -122.796875 190.382812 -116.40625 199.125 -107.125 C 207.863281 -97.84375 212.234375 -84.863281 212.234375 -68.1875 C 212.234375 -54.46875 208.0625 -42.160156 199.71875 -31.265625 C 191.382812 -20.367188 179.082031 -11.828125 162.8125 -5.640625 C 146.539062 0.535156 126.972656 3.625 104.109375 3.625 Z M 104.109375 3.625 "/></g></g></g><g fill="#2ad580" fill-opacity="1"><g transform="translate(1004.369036, 390.279844)"><g><path d="M 56.890625 3.625 C 43.984375 3.625 33.085938 -0.675781 24.203125 -9.28125 C 15.328125 -17.882812 10.890625 -28.78125 10.890625 -41.96875 C 10.890625 -55.414062 15.257812 -66.304688 24 -74.640625 C 32.75 -82.984375 43.710938 -87.15625 56.890625 -87.15625 C 70.335938 -87.15625 81.363281 -82.984375 89.96875 -74.640625 C 98.582031 -66.304688 102.890625 -55.414062 102.890625 -41.96875 C 102.890625 -28.78125 98.519531 -17.882812 89.78125 -9.28125 C 81.039062 -0.675781 70.078125 3.625 56.890625 3.625 Z M 56.890625 3.625 "/></g></g></g></g></g></svg>